<svg width="30" height="30" viewBox="0 0 30 30" fill="none" xmlns="http://www.w3.org/2000/svg">
<g clip-path="url(#clip0_32_76)">
<path d="M27.7892 2.20291C24.8624 -0.723926 20.0674 -0.723926 17.1405 2.20291L11.3906 7.95278C13.3626 7.39233 15.5007 7.53763 17.3689 8.40945L20.3579 5.42035C21.5203 4.25792 23.4093 4.25792 24.5717 5.42035C25.7341 6.58278 25.7341 8.47173 24.5717 9.63416L20.8146 13.3913L18.3444 15.8615C17.182 17.0239 15.293 17.0239 14.1305 15.8615L10.9131 19.0789C11.6604 19.8262 12.5322 20.3866 13.4455 20.7395C15.9158 21.7151 18.7803 21.3415 20.9391 19.6393C21.1467 19.4733 21.375 19.2865 21.5618 19.0788L25.4435 15.1971L27.7891 12.8515C30.7368 9.92476 30.7368 5.1505 27.7892 2.20291Z" fill="#452B1A"/>
<path d="M12.4909 21.7151L9.6263 24.5797C8.46387 25.7422 6.57493 25.7422 5.4125 24.5797C4.25007 23.4172 4.25007 21.5284 5.4125 20.3659L11.6398 14.1386C12.8022 12.9762 14.6912 12.9762 15.8537 14.1386L19.0711 10.9212C18.3238 10.1739 17.452 9.61346 16.5387 9.26058C13.944 8.22269 10.8926 8.70012 8.71303 10.6513C8.60925 10.7344 8.50546 10.8382 8.42243 10.9212L2.19512 17.1484C-0.731708 20.0753 -0.731708 24.8703 2.19512 27.7972C5.12196 30.724 9.91698 30.724 12.8438 27.7972L18.4692 22.1095C15.6045 22.7737 14.9403 22.6907 12.4909 21.7151Z" fill="#452B1A"/>
</g>
<defs>
<clipPath id="clip0_32_76">
<rect width="30" height="30" fill="white"/>
</clipPath>
</defs>
</svg>
